<mxfile host="app.diagrams.net" modified="2023-09-20T13:30:54.037Z" agent="Mozilla/5.0 (Windows NT 10.0; Win64; x64) AppleWebKit/537.36 (KHTML, like Gecko) Chrome/116.0.0.0 Safari/537.36" version="21.6.8" etag="P8Ji8E5BFn6otvH6X7BU" type="device">
  <diagram name="Seite-1" id="1UqIFNeRel8w9c3Ury_5">
    <mxGraphModel dx="1077" dy="572" grid="1" gridSize="10" guides="1" tooltips="1" connect="1" arrows="1" fold="1" page="0" pageScale="1" pageWidth="827" pageHeight="1169" math="0" shadow="0">
      <root>
        <mxCell id="0" />
        <mxCell id="1" parent="0" />
        <mxCell id="4" value="" style="rounded=0;whiteSpace=wrap;html=1;fillColor=#FFFFFF;glass=0;strokeColor=default;" parent="1" vertex="1">
          <mxGeometry x="320" y="136" width="470" height="274" as="geometry" />
        </mxCell>
        <mxCell id="yWaaOR4PxaJ2o4JASkqa-271" value="AWS Cloud" style="sketch=0;outlineConnect=0;gradientColor=none;html=1;whiteSpace=wrap;fontSize=12;fontStyle=0;shape=mxgraph.aws4.group;grIcon=mxgraph.aws4.group_aws_cloud;strokeColor=#000000;fillColor=none;verticalAlign=top;align=left;spacingLeft=30;fontColor=#000000;dashed=0;" vertex="1" parent="1">
          <mxGeometry x="330" y="145.5" width="450" height="254.5" as="geometry" />
        </mxCell>
        <mxCell id="iihOq3sOjZAMv7ztsFPM-3" value="VPC" style="sketch=0;outlineConnect=0;gradientColor=none;html=1;whiteSpace=wrap;fontSize=12;fontStyle=0;shape=mxgraph.aws4.group;grIcon=mxgraph.aws4.group_vpc;strokeColor=#000000;fillColor=none;verticalAlign=top;align=left;spacingLeft=30;fontColor=#333333;dashed=0;perimeterSpacing=0;strokeWidth=1;" parent="1" vertex="1">
          <mxGeometry x="410" y="173.5" width="370" height="226.5" as="geometry" />
        </mxCell>
        <mxCell id="iihOq3sOjZAMv7ztsFPM-21" value="" style="edgeStyle=orthogonalEdgeStyle;html=1;endArrow=block;elbow=vertical;startArrow=none;endFill=1;strokeColor=#545B64;rounded=0;exitX=1;exitY=0.5;exitDx=0;exitDy=0;entryX=0;entryY=0.5;entryDx=0;entryDy=0;" parent="1" target="50" edge="1">
          <mxGeometry width="100" relative="1" as="geometry">
            <mxPoint x="466.9579100145137" y="240.95036284470245" as="sourcePoint" />
            <mxPoint x="430" y="245" as="targetPoint" />
            <Array as="points">
              <mxPoint x="467" y="247" />
            </Array>
          </mxGeometry>
        </mxCell>
        <mxCell id="3" value="" style="group" parent="1" vertex="1" connectable="0">
          <mxGeometry x="216" y="216" width="54" height="62" as="geometry" />
        </mxCell>
        <mxCell id="2" value="" style="rounded=1;whiteSpace=wrap;html=1;fillColor=#FFFFFF;" parent="3" vertex="1">
          <mxGeometry width="54" height="62" as="geometry" />
        </mxCell>
        <mxCell id="iihOq3sOjZAMv7ztsFPM-18" value="" style="sketch=0;outlineConnect=0;fontColor=#232F3E;gradientColor=none;fillColor=#232F3D;strokeColor=none;dashed=0;verticalLabelPosition=bottom;verticalAlign=top;align=center;html=1;fontSize=12;fontStyle=0;aspect=fixed;pointerEvents=1;shape=mxgraph.aws4.users;" parent="3" vertex="1">
          <mxGeometry x="5.4" y="9.964285714285714" width="42.07142857142857" height="42.07142857142857" as="geometry" />
        </mxCell>
        <mxCell id="65" value="" style="group" parent="1" vertex="1" connectable="0">
          <mxGeometry x="337" y="226" width="70" height="40" as="geometry" />
        </mxCell>
        <mxCell id="63" value="" style="sketch=0;outlineConnect=0;fontColor=#232F3E;gradientColor=none;fillColor=#4D27AA;strokeColor=none;dashed=0;verticalLabelPosition=bottom;verticalAlign=top;align=center;html=1;fontSize=12;fontStyle=0;aspect=fixed;pointerEvents=1;shape=mxgraph.aws4.internet_gateway;" parent="65" vertex="1">
          <mxGeometry x="15" width="40" height="40" as="geometry" />
        </mxCell>
        <mxCell id="64" value="&lt;font style=&quot;font-size: 8px;&quot;&gt;Internet Gateway&lt;/font&gt;" style="text;html=1;strokeColor=none;fillColor=none;align=center;verticalAlign=top;whiteSpace=wrap;rounded=0;fontColor=#000000;" parent="65" vertex="1">
          <mxGeometry y="31.25" width="70" height="8.75" as="geometry" />
        </mxCell>
        <mxCell id="230" value="" style="sketch=0;outlineConnect=0;fontColor=#232F3E;gradientColor=none;strokeColor=#ffffff;fillColor=#232F3E;dashed=0;verticalLabelPosition=middle;verticalAlign=middle;align=center;html=1;whiteSpace=wrap;fontSize=10;fontStyle=1;spacing=3;shape=mxgraph.aws4.productIcon;prIcon=mxgraph.aws4.network_load_balancer;horizontal=1;labelPosition=center;" parent="1" vertex="1">
          <mxGeometry x="452.5" y="225.5" width="42" height="102.5" as="geometry" />
        </mxCell>
        <mxCell id="265" value="" style="edgeStyle=orthogonalEdgeStyle;html=1;endArrow=block;elbow=vertical;startArrow=none;endFill=1;strokeColor=#545B64;rounded=0;entryX=0;entryY=0.5;entryDx=0;entryDy=0;strokeWidth=0.5;endSize=3;exitX=0.75;exitY=1;exitDx=0;exitDy=0;" parent="1" source="50" target="256" edge="1">
          <mxGeometry width="100" relative="1" as="geometry">
            <mxPoint x="710" y="309" as="sourcePoint" />
            <mxPoint x="741.3100000000001" y="341.71000000000004" as="targetPoint" />
            <Array as="points">
              <mxPoint x="720" y="360" />
            </Array>
          </mxGeometry>
        </mxCell>
        <mxCell id="256" value="" style="rounded=1;whiteSpace=wrap;html=1;strokeColor=none;fontSize=11;fillColor=#dae8fc;" parent="1" vertex="1">
          <mxGeometry x="740" y="345" width="39.496122829585325" height="30" as="geometry" />
        </mxCell>
        <mxCell id="257" value="" style="rounded=0;whiteSpace=wrap;html=1;fontSize=11;fillColor=#dae8fc;strokeColor=none;" parent="1" vertex="1">
          <mxGeometry x="763.3752563685301" y="345" width="16.120866461055236" height="30" as="geometry" />
        </mxCell>
        <mxCell id="266" value="" style="shape=image;verticalLabelPosition=bottom;labelBackgroundColor=default;verticalAlign=top;aspect=fixed;imageAspect=0;image=data:image/svg+xml,PHN2ZyB4bWxucz0iaHR0cDovL3d3dy53My5vcmcvMjAwMC9zdmciIHByZXNlcnZlQXNwZWN0UmF0aW89InhNaWRZTWlkIiB2aWV3Qm94PSIwIDAgMjU1Ljk5OTk4NDc0MTIxMDk0IDI0Ny4zMTUwMDI0NDE0MDYyNSIgaGVpZ2h0PSIyNDE1LjMxMDIyNTQ1NTk5MTciIHdpZHRoPSIyNDk5Ljk5OTg1MDk4ODM4OCI+PHBhdGggZmlsbD0iIzQxOUVEQSIgZD0iTTI1Mi4zODYgMTI4LjA2NGMtMS4yMDIuMS0yLjQxLjE0Ny0zLjY5My4xNDctNy40NDYgMC0xNC42Ny0xLjc0Ni0yMS4xODctNC45NDQgMi4xNy0xMi40NDcgMy4wOTItMjQuOTg3IDIuODUtMzcuNDgxLTcuMDY1LTEwLjIyLTE1LjE0LTE5Ljg2My0yNC4yNTYtMjguNzQ3IDMuOTU1LTcuNDE1IDkuODAxLTEzLjc5NSAxNy4xLTE4LjMxOWwzLjEzMy0xLjkzNy0yLjQ0Mi0yLjc1NGMtMTIuNTgxLTE0LjE2Ny0yNy41OTYtMjUuMTItNDQuNjItMzIuNTUyTDE3NS44NzYgMGwtLjg2MiAzLjU4OGMtMi4wMyA4LjM2My02LjI3NCAxNS45MDgtMTIuMSAyMS45NjJhMTkzLjg0MiAxOTMuODQyIDAgMCAwLTM0Ljk1Ni0xNC40MDVBMTk0LjAxMiAxOTQuMDEyIDAgMCAwIDkzLjA1NiAyNS41MkM4Ny4yNTQgMTkuNDczIDgzLjAyIDExLjk0NyA4MC45OTkgMy42MDhMODAuMTMuMDJsLTMuMzgyIDEuNDdDNTkuOTM5IDguODE1IDQ0LjUxIDIwLjA2NSAzMi4xMzUgMzQuMDJsLTIuNDQ5IDIuNzYgMy4xMyAxLjkzN2M3LjI3NiA0LjUwNiAxMy4xMDYgMTAuODQ5IDE3LjA1NCAxOC4yMjMtOS4wODggOC44NS0xNy4xNTQgMTguNDYyLTI0LjIxNCAyOC42MzUtLjI3NSAxMi40ODkuNiAyNS4xMiAyLjc4IDM3Ljc0LTYuNDg0IDMuMTY3LTEzLjY2OCA0Ljg5NC0yMS4wNjUgNC44OTQtMS4yOTggMC0yLjUxMy0uMDQ3LTMuNjkzLS4xNDVMMCAxMjcuNzg1bC4zNDUgMy42NzFjMS44MDIgMTguNTc4IDcuNTcgMzYuMjQ3IDE3LjE1NCA1Mi41MjNsMS44NyAzLjE3NiAyLjgxLTIuMzg0YTQ4LjA0IDQ4LjA0IDAgMCAxIDIyLjczNy0xMC42NSAxOTQuODYgMTk0Ljg2IDAgMCAwIDE5LjQ2IDMxLjY5NmMxMS44MjggNC4xMzcgMjQuMTUxIDcuMjI1IDM2Ljg3OCA5LjA2MyAxLjIyIDguNDE3LjI0OCAxNy4xMjItMy4wNzIgMjUuMTcxbC0xLjQgMy40MTEgMy42Ljc5M2M5LjIyIDIuMDI3IDE4LjUyMyAzLjA2IDI3LjYzMSAzLjA2bDI3LjYyMy0zLjA2IDMuNjA0LS43OTMtMS40MDMtMy40MTdjLTMuMzEyLTguMDUtNC4yODQtMTYuNzY1LTMuMDYzLTI1LjE4MyAxMi42NzYtMS44NCAyNC45NTQtNC45MiAzNi43MzgtOS4wNDVhMTk1LjEwOCAxOTUuMTA4IDAgMCAwIDE5LjQ4Mi0zMS43MjYgNDguMjU0IDQ4LjI1NCAwIDAgMSAyMi44NDggMTAuNjZsMi44MDkgMi4zOCAxLjg2Mi0zLjE2OGM5LjYtMTYuMjk3IDE1LjM2OC0zMy45NjUgMTcuMTQyLTUyLjUxM2wuMzQ1LTMuNjY1LTMuNjE0LjI3OXpNMTY3LjQ5IDE3Mi45NmMtMTMuMDY4IDMuNTU0LTI2LjM0IDUuMzQ4LTM5LjUzMiA1LjM0OC0xMy4yMjggMC0yNi40ODMtMS43OTMtMzkuNTYzLTUuMzQ4YTE1My4yNTUgMTUzLjI1NSAwIDAgMS0xNi45MzItMzUuNjdjLTQuMDY2LTEyLjUxNy02LjQ0NS0yNS42My03LjEzNS0zOS4xMzQgOC40NDYtMTAuNDQzIDE4LjA1Mi0xOS41OTEgMjguNjY1LTI3LjI5M2ExNTIuNjIgMTUyLjYyIDAgMCAxIDM0Ljk2NS0xOS4wMTEgMTUzLjI0MiAxNTMuMjQyIDAgMCAxIDM0Ljg5OCAxOC45N2MxMC42NTQgNy43NDMgMjAuMzAyIDE2Ljk2MiAyOC43OSAyNy40Ny0uNzI0IDEzLjQyNy0zLjEzMiAyNi40NjUtNy4yMDQgMzguOTYxYTE1Mi43NjcgMTUyLjc2NyAwIDAgMS0xNi45NTIgMzUuNzA3em0tMjguNzQtNjIuOTk4YzAgOS4yMzIgNy40ODIgMTYuNyAxNi43MDIgMTYuNyA5LjIxNyAwIDE2LjY5LTcuNDY2IDE2LjY5LTE2LjcgMC05LjE5Ni03LjQ3My0xNi42OTItMTYuNjktMTYuNjkyLTkuMjIgMC0xNi43MDEgNy40OTYtMTYuNzAxIDE2LjY5MnptLTIxLjU3OCAwYzAgOS4yMzItNy40OCAxNi43LTE2LjcgMTYuNy05LjIyNiAwLTE2LjY4NS03LjQ2Ni0xNi42ODUtMTYuNyAwLTkuMTkzIDcuNDYtMTYuNjg5IDE2LjY4Ni0xNi42ODkgOS4yMiAwIDE2LjcgNy40OTYgMTYuNyAxNi42OXoiLz48L3N2Zz4=;" parent="1" vertex="1">
          <mxGeometry x="751" y="350.5" width="20" height="19.32" as="geometry" />
        </mxCell>
        <mxCell id="261" value="&lt;p style=&quot;line-height: 0%;&quot;&gt;&lt;span style=&quot;background-color: initial;&quot;&gt;&lt;font style=&quot;font-size: 6px;&quot;&gt;etcd Cluster&lt;/font&gt;&lt;/span&gt;&lt;/p&gt;" style="text;html=1;strokeColor=none;fillColor=none;align=center;verticalAlign=middle;whiteSpace=wrap;rounded=0;fontColor=#000000;container=0;" parent="1" vertex="1">
          <mxGeometry x="742.1159638165202" y="338.3076744186047" width="37.8840361834798" height="3.99" as="geometry" />
        </mxCell>
        <mxCell id="yWaaOR4PxaJ2o4JASkqa-269" value="" style="edgeStyle=orthogonalEdgeStyle;html=1;endArrow=block;elbow=vertical;startArrow=none;endFill=1;strokeColor=#545B64;rounded=0;" edge="1" parent="1">
          <mxGeometry width="100" relative="1" as="geometry">
            <mxPoint x="393" y="247" as="sourcePoint" />
            <mxPoint x="452.5" y="246.93" as="targetPoint" />
            <Array as="points">
              <mxPoint x="430" y="247" />
            </Array>
          </mxGeometry>
        </mxCell>
        <mxCell id="yWaaOR4PxaJ2o4JASkqa-270" value="" style="edgeStyle=orthogonalEdgeStyle;html=1;endArrow=block;elbow=vertical;startArrow=none;endFill=1;strokeColor=#545B64;rounded=0;exitX=1;exitY=0.5;exitDx=0;exitDy=0;" edge="1" parent="1" source="2">
          <mxGeometry width="100" relative="1" as="geometry">
            <mxPoint x="269" y="246.93" as="sourcePoint" />
            <mxPoint x="350" y="246.93" as="targetPoint" />
          </mxGeometry>
        </mxCell>
        <mxCell id="50" value="&lt;font style=&quot;font-size: 8px;&quot;&gt;Private subnet&lt;/font&gt;" style="points=[[0,0],[0.25,0],[0.5,0],[0.75,0],[1,0],[1,0.25],[1,0.5],[1,0.75],[1,1],[0.75,1],[0.5,1],[0.25,1],[0,1],[0,0.75],[0,0.5],[0,0.25]];outlineConnect=0;gradientColor=none;html=1;whiteSpace=wrap;fontSize=12;fontStyle=0;container=0;pointerEvents=0;collapsible=0;recursiveResize=0;shape=mxgraph.aws4.group;grIcon=mxgraph.aws4.group_security_group;grStroke=0;strokeColor=#147EBA;fillColor=#E6F2F8;verticalAlign=top;align=left;spacingLeft=30;fontColor=#147EBA;dashed=0;" parent="1" vertex="1">
          <mxGeometry x="548" y="174" width="230" height="146" as="geometry" />
        </mxCell>
        <mxCell id="219" value="Public subnet" style="points=[[0,0],[0.25,0],[0.5,0],[0.75,0],[1,0],[1,0.25],[1,0.5],[1,0.75],[1,1],[0.75,1],[0.5,1],[0.25,1],[0,1],[0,0.75],[0,0.5],[0,0.25]];outlineConnect=0;gradientColor=none;html=1;whiteSpace=wrap;fontSize=12;fontStyle=0;container=1;pointerEvents=0;collapsible=0;recursiveResize=0;shape=mxgraph.aws4.group;grIcon=mxgraph.aws4.group_security_group;grStroke=0;strokeColor=#248814;fillColor=#E9F3E6;verticalAlign=top;align=left;spacingLeft=30;fontColor=#248814;dashed=0;" parent="1" vertex="1">
          <mxGeometry x="548.11" y="174" width="231" height="145" as="geometry" />
        </mxCell>
        <mxCell id="yWaaOR4PxaJ2o4JASkqa-274" value="" style="group" vertex="1" connectable="0" parent="1">
          <mxGeometry x="573" y="199.98" width="187" height="100.02" as="geometry" />
        </mxCell>
        <mxCell id="56" value="&lt;p style=&quot;line-height: 70%;&quot;&gt;&lt;span style=&quot;font-size: 8px;&quot;&gt;patroni primary&lt;/span&gt;&lt;/p&gt;" style="text;html=1;strokeColor=none;fillColor=none;align=center;verticalAlign=middle;whiteSpace=wrap;rounded=0;fontColor=#000000;container=0;" parent="yWaaOR4PxaJ2o4JASkqa-274" vertex="1">
          <mxGeometry width="67.42932176295959" height="8.266567660024055" as="geometry" />
        </mxCell>
        <mxCell id="205" value="" style="shape=image;verticalLabelPosition=bottom;labelBackgroundColor=default;verticalAlign=top;aspect=fixed;imageAspect=0;image=data:image/svg+xml,PHN2ZyB4bWxucz0iaHR0cDovL3d3dy53My5vcmcvMjAwMC9zdmciIHhtbDpzcGFjZT0icHJlc2VydmUiIHZpZXdCb3g9IjAgMCA0MzIuMDcxIDQ0NS4zODMiIGhlaWdodD0iNDQ1LjM4M3B0IiB3aWR0aD0iNDMyLjA3MXB0Ij4KPGcgc3R5bGU9ImZpbGwtcnVsZTpub256ZXJvO2NsaXAtcnVsZTpub256ZXJvO3N0cm9rZTojMDAwMDAwO3N0cm9rZS1taXRlcmxpbWl0OjQ7IiBpZD0ib3JnaW5hbCI+Cgk8L2c+CjxnIHN0eWxlPSJmaWxsLXJ1bGU6bm9uemVybztjbGlwLXJ1bGU6bm9uemVybztmaWxsOm5vbmU7c3Ryb2tlOiNGRkZGRkY7c3Ryb2tlLXdpZHRoOjEyLjQ2NTE7c3Ryb2tlLWxpbmVjYXA6cm91bmQ7c3Ryb2tlLWxpbmVqb2luOnJvdW5kO3N0cm9rZS1taXRlcmxpbWl0OjQ7IiBpZD0iTGF5ZXJfeDAwMjBfMyI+CjxwYXRoIGQ9Ik0zMjMuMjA1LDMyNC4yMjdjMi44MzMtMjMuNjAxLDEuOTg0LTI3LjA2MiwxOS41NjMtMjMuMjM5bDQuNDYzLDAuMzkyYzEzLjUxNywwLjYxNSwzMS4xOTktMi4xNzQsNDEuNTg3LTdjMjIuMzYyLTEwLjM3NiwzNS42MjItMjcuNywxMy41NzItMjMuMTQ4Yy01MC4yOTcsMTAuMzc2LTUzLjc1NS02LjY1NS01My43NTUtNi42NTVjNTMuMTExLTc4LjgwMyw3NS4zMTMtMTc4LjgzNiw1Ni4xNDktMjAzLjMyMiAgICBDMzUyLjUxNC01LjUzNCwyNjIuMDM2LDI2LjA0OSwyNjAuNTIyLDI2Ljg2OWwtMC40ODIsMC4wODljLTkuOTM4LTIuMDYyLTIxLjA2LTMuMjk0LTMzLjU1NC0zLjQ5NmMtMjIuNzYxLTAuMzc0LTQwLjAzMiw1Ljk2Ny01My4xMzMsMTUuOTA0YzAsMC0xNjEuNDA4LTY2LjQ5OC0xNTMuODk5LDgzLjYyOGMxLjU5NywzMS45MzYsNDUuNzc3LDI0MS42NTUsOTguNDcsMTc4LjMxICAgIGMxOS4yNTktMjMuMTYzLDM3Ljg3MS00Mi43NDgsMzcuODcxLTQyLjc0OGM5LjI0Miw2LjE0LDIwLjMwNyw5LjI3MiwzMS45MTIsOC4xNDdsMC44OTctMC43NjVjLTAuMjgxLDIuODc2LTAuMTU3LDUuNjg5LDAuMzU5LDkuMDE5Yy0xMy41NzIsMTUuMTY3LTkuNTg0LDE3LjgzLTM2LjcyMywyMy40MTZjLTI3LjQ1Nyw1LjY1OS0xMS4zMjYsMTUuNzM0LTAuNzk3LDE4LjM2N2MxMi43NjgsMy4xOTMsNDIuMzA1LDcuNzE2LDYyLjI2OC0yMC4yMjQgICAgbC0wLjc5NSwzLjE4OGM1LjMyNSw0LjI2LDQuOTY1LDMwLjYxOSw1LjcyLDQ5LjQ1MmMwLjc1NiwxOC44MzQsMi4wMTcsMzYuNDA5LDUuODU2LDQ2Ljc3MWMzLjgzOSwxMC4zNiw4LjM2OSwzNy4wNSw0NC4wMzYsMjkuNDA2YzI5LjgwOS02LjM4OCw1Mi42LTE1LjU4Miw1NC42NzctMTAxLjEwNyIgc3R5bGU9ImZpbGw6IzAwMDAwMDtzdHJva2U6IzAwMDAwMDtzdHJva2Utd2lkdGg6MzcuMzk1MztzdHJva2UtbGluZWNhcDpidXR0O3N0cm9rZS1saW5lam9pbjptaXRlcjsiLz4KPHBhdGggZD0iTTQwMi4zOTUsMjcxLjIzYy01MC4zMDIsMTAuMzc2LTUzLjc2LTYuNjU1LTUzLjc2LTYuNjU1YzUzLjExMS03OC44MDgsNzUuMzEzLTE3OC44NDMsNTYuMTUzLTIwMy4zMjZjLTUyLjI3LTY2Ljc4NS0xNDIuNzUyLTM1LjItMTQ0LjI2Mi0zNC4zOGwtMC40ODYsMC4wODdjLTkuOTM4LTIuMDYzLTIxLjA2LTMuMjkyLTMzLjU2LTMuNDk2Yy0yMi43NjEtMC4zNzMtNDAuMDI2LDUuOTY3LTUzLjEyNywxNS45MDIgICAgYzAsMC0xNjEuNDExLTY2LjQ5NS0xNTMuOTA0LDgzLjYzYzEuNTk3LDMxLjkzOCw0NS43NzYsMjQxLjY1Nyw5OC40NzEsMTc4LjMxMmMxOS4yNi0yMy4xNjMsMzcuODY5LTQyLjc0OCwzNy44NjktNDIuNzQ4YzkuMjQzLDYuMTQsMjAuMzA4LDkuMjcyLDMxLjkwOCw4LjE0N2wwLjkwMS0wLjc2NWMtMC4yOCwyLjg3Ni0wLjE1Miw1LjY4OSwwLjM2MSw5LjAxOWMtMTMuNTc1LDE1LjE2Ny05LjU4NiwxNy44My0zNi43MjMsMjMuNDE2ICAgIGMtMjcuNDU5LDUuNjU5LTExLjMyOCwxNS43MzQtMC43OTYsMTguMzY3YzEyLjc2OCwzLjE5Myw0Mi4zMDcsNy43MTYsNjIuMjY2LTIwLjIyNGwtMC43OTYsMy4xODhjNS4zMTksNC4yNiw5LjA1NCwyNy43MTEsOC40MjgsNDguOTY5Yy0wLjYyNiwyMS4yNTktMS4wNDQsMzUuODU0LDMuMTQ3LDQ3LjI1NGM0LjE5MSwxMS40LDguMzY4LDM3LjA1LDQ0LjA0MiwyOS40MDZjMjkuODA5LTYuMzg4LDQ1LjI1Ni0yMi45NDIsNDcuNDA1LTUwLjU1NSAgICBjMS41MjUtMTkuNjMxLDQuOTc2LTE2LjcyOSw1LjE5NC0zNC4yOGwyLjc2OC04LjMwOWMzLjE5Mi0yNi42MTEsMC41MDctMzUuMTk2LDE4Ljg3Mi0zMS4yMDNsNC40NjMsMC4zOTJjMTMuNTE3LDAuNjE1LDMxLjIwOC0yLjE3NCw0MS41OTEtN2MyMi4zNTgtMTAuMzc2LDM1LjYxOC0yNy43LDEzLjU3My0yMy4xNDh6IiBzdHlsZT0iZmlsbDojMzM2NzkxO3N0cm9rZTpub25lOyIvPgo8cGF0aCBkPSJNMjE1Ljg2NiwyODYuNDg0Yy0xLjM4NSw0OS41MTYsMC4zNDgsOTkuMzc3LDUuMTkzLDExMS40OTVjNC44NDgsMTIuMTE4LDE1LjIyMywzNS42ODgsNTAuOSwyOC4wNDVjMjkuODA2LTYuMzksNDAuNjUxLTE4Ljc1Niw0NS4zNTctNDYuMDUxYzMuNDY2LTIwLjA4MiwxMC4xNDgtNzUuODU0LDExLjAwNS04Ny4yODEiLz4KPHBhdGggZD0iTTE3My4xMDQsMzguMjU2YzAsMC0xNjEuNTIxLTY2LjAxNi0xNTQuMDEyLDg0LjEwOWMxLjU5NywzMS45MzgsNDUuNzc5LDI0MS42NjQsOTguNDczLDE3OC4zMTZjMTkuMjU2LTIzLjE2NiwzNi42NzEtNDEuMzM1LDM2LjY3MS00MS4zMzUiLz4KPHBhdGggZD0iTTI2MC4zNDksMjYuMjA3Yy01LjU5MSwxLjc1Myw4OS44NDgtMzQuODg5LDE0NC4wODcsMzQuNDE3YzE5LjE1OSwyNC40ODQtMy4wNDMsMTI0LjUxOS01Ni4xNTMsMjAzLjMyOSIvPgo8cGF0aCBkPSJNMzQ4LjI4MiwyNjMuOTUzYzAsMCwzLjQ2MSwxNy4wMzYsNTMuNzY0LDYuNjUzYzIyLjA0LTQuNTUyLDguNzc2LDEyLjc3NC0xMy41NzcsMjMuMTU1Yy0xOC4zNDUsOC41MTQtNTkuNDc0LDEwLjY5Ni02MC4xNDYtMS4wNjljLTEuNzI5LTMwLjM1NSwyMS42NDctMjEuMTMzLDE5Ljk2LTI4LjczOWMtMS41MjUtNi44NS0xMS45NzktMTMuNTczLTE4Ljg5NC0zMC4zMzggICAgYy02LjAzNy0xNC42MzMtODIuNzk2LTEyNi44NDksMjEuMjg3LTExMC4xODNjMy44MTMtMC43ODktMjcuMTQ2LTk5LjAwMi0xMjQuNTUzLTEwMC41OTljLTk3LjM4NS0xLjU5Ny05NC4xOSwxMTkuNzYyLTk0LjE5LDExOS43NjIiIHN0eWxlPSJzdHJva2UtbGluZWpvaW46YmV2ZWw7Ii8+CjxwYXRoIGQ9Ik0xODguNjA0LDI3NC4zMzRjLTEzLjU3NywxNS4xNjYtOS41ODQsMTcuODI5LTM2LjcyMywyMy40MTdjLTI3LjQ1OSw1LjY2LTExLjMyNiwxNS43MzMtMC43OTcsMTguMzY1YzEyLjc2OCwzLjE5NSw0Mi4zMDcsNy43MTgsNjIuMjY2LTIwLjIyOWM2LjA3OC04LjUwOS0wLjAzNi0yMi4wODYtOC4zODUtMjUuNTQ3Yy00LjAzNC0xLjY3MS05LjQyOC0zLjc2NS0xNi4zNjEsMy45OTR6Ii8+CjxwYXRoIGQ9Ik0xODcuNzE1LDI3NC4wNjljLTEuMzY4LTguOTE3LDIuOTMtMTkuNTI4LDcuNTM2LTMxLjk0MmM2LjkyMi0xOC42MjYsMjIuODkzLTM3LjI1NSwxMC4xMTctOTYuMzM5Yy05LjUyMy00NC4wMjktNzMuMzk2LTkuMTYzLTczLjQzNi0zLjE5M2MtMC4wMzksNS45NjgsMi44ODksMzAuMjYtMS4wNjcsNTguNTQ4Yy01LjE2MiwzNi45MTMsMjMuNDg4LDY4LjEzMiw1Ni40NzksNjQuOTM4Ii8+CjxwYXRoIGQ9Ik0xNzIuNTE3LDE0MS43Yy0wLjI4OCwyLjAzOSwzLjczMyw3LjQ4LDguOTc2LDguMjA3YzUuMjM0LDAuNzMsOS43MTQtMy41MjIsOS45OTgtNS41NTljMC4yODQtMi4wMzktMy43MzItNC4yODUtOC45NzctNS4wMTVjLTUuMjM3LTAuNzMxLTkuNzE5LDAuMzMzLTkuOTk2LDIuMzY3eiIgc3R5bGU9ImZpbGw6I0ZGRkZGRjtzdHJva2Utd2lkdGg6NC4xNTU7c3Ryb2tlLWxpbmVjYXA6YnV0dDtzdHJva2UtbGluZWpvaW46bWl0ZXI7Ii8+CjxwYXRoIGQ9Ik0zMzEuOTQxLDEzNy41NDNjMC4yODQsMi4wMzktMy43MzIsNy40OC04Ljk3Niw4LjIwN2MtNS4yMzgsMC43My05LjcxOC0zLjUyMi0xMC4wMDUtNS41NTljLTAuMjc3LTIuMDM5LDMuNzQtNC4yODUsOC45NzktNS4wMTVjNS4yMzktMC43Myw5LjcxOCwwLjMzMywxMC4wMDIsMi4zNjh6IiBzdHlsZT0iZmlsbDojRkZGRkZGO3N0cm9rZS13aWR0aDoyLjA3NzU7c3Ryb2tlLWxpbmVjYXA6YnV0dDtzdHJva2UtbGluZWpvaW46bWl0ZXI7Ii8+CjxwYXRoIGQ9Ik0zNTAuNjc2LDEyMy40MzJjMC44NjMsMTUuOTk0LTMuNDQ1LDI2Ljg4OC0zLjk4OCw0My45MTRjLTAuODA0LDI0Ljc0OCwxMS43OTksNTMuMDc0LTcuMTkxLDgxLjQzNSIvPgo8cGF0aCBkPSJNMCw2MC4yMzIiIHN0eWxlPSJzdHJva2Utd2lkdGg6MzsiLz4KPC9nPgo8L3N2Zz4=;container=1;" parent="yWaaOR4PxaJ2o4JASkqa-274" vertex="1">
          <mxGeometry x="14.049554692852219" y="12.090761624677706" width="26.68988353505367" height="27.490580041105282" as="geometry" />
        </mxCell>
        <mxCell id="yWaaOR4PxaJ2o4JASkqa-272" value="" style="group" vertex="1" connectable="0" parent="yWaaOR4PxaJ2o4JASkqa-274">
          <mxGeometry x="122.9442795158712" y="0.5299978294560996" width="64.05572048412881" height="40.350709780619" as="geometry" />
        </mxCell>
        <mxCell id="69" value="&lt;p style=&quot;line-height: 70%;&quot;&gt;&lt;span style=&quot;font-size: 8px;&quot;&gt;patroni replica&lt;/span&gt;&lt;/p&gt;" style="text;html=1;strokeColor=none;fillColor=none;align=center;verticalAlign=middle;whiteSpace=wrap;rounded=0;fontColor=#000000;container=0;" parent="yWaaOR4PxaJ2o4JASkqa-272" vertex="1">
          <mxGeometry width="64.05572048412881" height="8.266567660024055" as="geometry" />
        </mxCell>
        <mxCell id="206" value="" style="shape=image;verticalLabelPosition=bottom;labelBackgroundColor=default;verticalAlign=top;aspect=fixed;imageAspect=0;image=data:image/svg+xml,PHN2ZyB4bWxucz0iaHR0cDovL3d3dy53My5vcmcvMjAwMC9zdmciIHhtbDpzcGFjZT0icHJlc2VydmUiIHZpZXdCb3g9IjAgMCA0MzIuMDcxIDQ0NS4zODMiIGhlaWdodD0iNDQ1LjM4M3B0IiB3aWR0aD0iNDMyLjA3MXB0Ij4KPGcgc3R5bGU9ImZpbGwtcnVsZTpub256ZXJvO2NsaXAtcnVsZTpub256ZXJvO3N0cm9rZTojMDAwMDAwO3N0cm9rZS1taXRlcmxpbWl0OjQ7IiBpZD0ib3JnaW5hbCI+Cgk8L2c+CjxnIHN0eWxlPSJmaWxsLXJ1bGU6bm9uemVybztjbGlwLXJ1bGU6bm9uemVybztmaWxsOm5vbmU7c3Ryb2tlOiNGRkZGRkY7c3Ryb2tlLXdpZHRoOjEyLjQ2NTE7c3Ryb2tlLWxpbmVjYXA6cm91bmQ7c3Ryb2tlLWxpbmVqb2luOnJvdW5kO3N0cm9rZS1taXRlcmxpbWl0OjQ7IiBpZD0iTGF5ZXJfeDAwMjBfMyI+CjxwYXRoIGQ9Ik0zMjMuMjA1LDMyNC4yMjdjMi44MzMtMjMuNjAxLDEuOTg0LTI3LjA2MiwxOS41NjMtMjMuMjM5bDQuNDYzLDAuMzkyYzEzLjUxNywwLjYxNSwzMS4xOTktMi4xNzQsNDEuNTg3LTdjMjIuMzYyLTEwLjM3NiwzNS42MjItMjcuNywxMy41NzItMjMuMTQ4Yy01MC4yOTcsMTAuMzc2LTUzLjc1NS02LjY1NS01My43NTUtNi42NTVjNTMuMTExLTc4LjgwMyw3NS4zMTMtMTc4LjgzNiw1Ni4xNDktMjAzLjMyMiAgICBDMzUyLjUxNC01LjUzNCwyNjIuMDM2LDI2LjA0OSwyNjAuNTIyLDI2Ljg2OWwtMC40ODIsMC4wODljLTkuOTM4LTIuMDYyLTIxLjA2LTMuMjk0LTMzLjU1NC0zLjQ5NmMtMjIuNzYxLTAuMzc0LTQwLjAzMiw1Ljk2Ny01My4xMzMsMTUuOTA0YzAsMC0xNjEuNDA4LTY2LjQ5OC0xNTMuODk5LDgzLjYyOGMxLjU5NywzMS45MzYsNDUuNzc3LDI0MS42NTUsOTguNDcsMTc4LjMxICAgIGMxOS4yNTktMjMuMTYzLDM3Ljg3MS00Mi43NDgsMzcuODcxLTQyLjc0OGM5LjI0Miw2LjE0LDIwLjMwNyw5LjI3MiwzMS45MTIsOC4xNDdsMC44OTctMC43NjVjLTAuMjgxLDIuODc2LTAuMTU3LDUuNjg5LDAuMzU5LDkuMDE5Yy0xMy41NzIsMTUuMTY3LTkuNTg0LDE3LjgzLTM2LjcyMywyMy40MTZjLTI3LjQ1Nyw1LjY1OS0xMS4zMjYsMTUuNzM0LTAuNzk3LDE4LjM2N2MxMi43NjgsMy4xOTMsNDIuMzA1LDcuNzE2LDYyLjI2OC0yMC4yMjQgICAgbC0wLjc5NSwzLjE4OGM1LjMyNSw0LjI2LDQuOTY1LDMwLjYxOSw1LjcyLDQ5LjQ1MmMwLjc1NiwxOC44MzQsMi4wMTcsMzYuNDA5LDUuODU2LDQ2Ljc3MWMzLjgzOSwxMC4zNiw4LjM2OSwzNy4wNSw0NC4wMzYsMjkuNDA2YzI5LjgwOS02LjM4OCw1Mi42LTE1LjU4Miw1NC42NzctMTAxLjEwNyIgc3R5bGU9ImZpbGw6IzAwMDAwMDtzdHJva2U6IzAwMDAwMDtzdHJva2Utd2lkdGg6MzcuMzk1MztzdHJva2UtbGluZWNhcDpidXR0O3N0cm9rZS1saW5lam9pbjptaXRlcjsiLz4KPHBhdGggZD0iTTQwMi4zOTUsMjcxLjIzYy01MC4zMDIsMTAuMzc2LTUzLjc2LTYuNjU1LTUzLjc2LTYuNjU1YzUzLjExMS03OC44MDgsNzUuMzEzLTE3OC44NDMsNTYuMTUzLTIwMy4zMjZjLTUyLjI3LTY2Ljc4NS0xNDIuNzUyLTM1LjItMTQ0LjI2Mi0zNC4zOGwtMC40ODYsMC4wODdjLTkuOTM4LTIuMDYzLTIxLjA2LTMuMjkyLTMzLjU2LTMuNDk2Yy0yMi43NjEtMC4zNzMtNDAuMDI2LDUuOTY3LTUzLjEyNywxNS45MDIgICAgYzAsMC0xNjEuNDExLTY2LjQ5NS0xNTMuOTA0LDgzLjYzYzEuNTk3LDMxLjkzOCw0NS43NzYsMjQxLjY1Nyw5OC40NzEsMTc4LjMxMmMxOS4yNi0yMy4xNjMsMzcuODY5LTQyLjc0OCwzNy44NjktNDIuNzQ4YzkuMjQzLDYuMTQsMjAuMzA4LDkuMjcyLDMxLjkwOCw4LjE0N2wwLjkwMS0wLjc2NWMtMC4yOCwyLjg3Ni0wLjE1Miw1LjY4OSwwLjM2MSw5LjAxOWMtMTMuNTc1LDE1LjE2Ny05LjU4NiwxNy44My0zNi43MjMsMjMuNDE2ICAgIGMtMjcuNDU5LDUuNjU5LTExLjMyOCwxNS43MzQtMC43OTYsMTguMzY3YzEyLjc2OCwzLjE5Myw0Mi4zMDcsNy43MTYsNjIuMjY2LTIwLjIyNGwtMC43OTYsMy4xODhjNS4zMTksNC4yNiw5LjA1NCwyNy43MTEsOC40MjgsNDguOTY5Yy0wLjYyNiwyMS4yNTktMS4wNDQsMzUuODU0LDMuMTQ3LDQ3LjI1NGM0LjE5MSwxMS40LDguMzY4LDM3LjA1LDQ0LjA0MiwyOS40MDZjMjkuODA5LTYuMzg4LDQ1LjI1Ni0yMi45NDIsNDcuNDA1LTUwLjU1NSAgICBjMS41MjUtMTkuNjMxLDQuOTc2LTE2LjcyOSw1LjE5NC0zNC4yOGwyLjc2OC04LjMwOWMzLjE5Mi0yNi42MTEsMC41MDctMzUuMTk2LDE4Ljg3Mi0zMS4yMDNsNC40NjMsMC4zOTJjMTMuNTE3LDAuNjE1LDMxLjIwOC0yLjE3NCw0MS41OTEtN2MyMi4zNTgtMTAuMzc2LDM1LjYxOC0yNy43LDEzLjU3My0yMy4xNDh6IiBzdHlsZT0iZmlsbDojMzM2NzkxO3N0cm9rZTpub25lOyIvPgo8cGF0aCBkPSJNMjE1Ljg2NiwyODYuNDg0Yy0xLjM4NSw0OS41MTYsMC4zNDgsOTkuMzc3LDUuMTkzLDExMS40OTVjNC44NDgsMTIuMTE4LDE1LjIyMywzNS42ODgsNTAuOSwyOC4wNDVjMjkuODA2LTYuMzksNDAuNjUxLTE4Ljc1Niw0NS4zNTctNDYuMDUxYzMuNDY2LTIwLjA4MiwxMC4xNDgtNzUuODU0LDExLjAwNS04Ny4yODEiLz4KPHBhdGggZD0iTTE3My4xMDQsMzguMjU2YzAsMC0xNjEuNTIxLTY2LjAxNi0xNTQuMDEyLDg0LjEwOWMxLjU5NywzMS45MzgsNDUuNzc5LDI0MS42NjQsOTguNDczLDE3OC4zMTZjMTkuMjU2LTIzLjE2NiwzNi42NzEtNDEuMzM1LDM2LjY3MS00MS4zMzUiLz4KPHBhdGggZD0iTTI2MC4zNDksMjYuMjA3Yy01LjU5MSwxLjc1Myw4OS44NDgtMzQuODg5LDE0NC4wODcsMzQuNDE3YzE5LjE1OSwyNC40ODQtMy4wNDMsMTI0LjUxOS01Ni4xNTMsMjAzLjMyOSIvPgo8cGF0aCBkPSJNMzQ4LjI4MiwyNjMuOTUzYzAsMCwzLjQ2MSwxNy4wMzYsNTMuNzY0LDYuNjUzYzIyLjA0LTQuNTUyLDguNzc2LDEyLjc3NC0xMy41NzcsMjMuMTU1Yy0xOC4zNDUsOC41MTQtNTkuNDc0LDEwLjY5Ni02MC4xNDYtMS4wNjljLTEuNzI5LTMwLjM1NSwyMS42NDctMjEuMTMzLDE5Ljk2LTI4LjczOWMtMS41MjUtNi44NS0xMS45NzktMTMuNTczLTE4Ljg5NC0zMC4zMzggICAgYy02LjAzNy0xNC42MzMtODIuNzk2LTEyNi44NDksMjEuMjg3LTExMC4xODNjMy44MTMtMC43ODktMjcuMTQ2LTk5LjAwMi0xMjQuNTUzLTEwMC41OTljLTk3LjM4NS0xLjU5Ny05NC4xOSwxMTkuNzYyLTk0LjE5LDExOS43NjIiIHN0eWxlPSJzdHJva2UtbGluZWpvaW46YmV2ZWw7Ii8+CjxwYXRoIGQ9Ik0xODguNjA0LDI3NC4zMzRjLTEzLjU3NywxNS4xNjYtOS41ODQsMTcuODI5LTM2LjcyMywyMy40MTdjLTI3LjQ1OSw1LjY2LTExLjMyNiwxNS43MzMtMC43OTcsMTguMzY1YzEyLjc2OCwzLjE5NSw0Mi4zMDcsNy43MTgsNjIuMjY2LTIwLjIyOWM2LjA3OC04LjUwOS0wLjAzNi0yMi4wODYtOC4zODUtMjUuNTQ3Yy00LjAzNC0xLjY3MS05LjQyOC0zLjc2NS0xNi4zNjEsMy45OTR6Ii8+CjxwYXRoIGQ9Ik0xODcuNzE1LDI3NC4wNjljLTEuMzY4LTguOTE3LDIuOTMtMTkuNTI4LDcuNTM2LTMxLjk0MmM2LjkyMi0xOC42MjYsMjIuODkzLTM3LjI1NSwxMC4xMTctOTYuMzM5Yy05LjUyMy00NC4wMjktNzMuMzk2LTkuMTYzLTczLjQzNi0zLjE5M2MtMC4wMzksNS45NjgsMi44ODksMzAuMjYtMS4wNjcsNTguNTQ4Yy01LjE2MiwzNi45MTMsMjMuNDg4LDY4LjEzMiw1Ni40NzksNjQuOTM4Ii8+CjxwYXRoIGQ9Ik0xNzIuNTE3LDE0MS43Yy0wLjI4OCwyLjAzOSwzLjczMyw3LjQ4LDguOTc2LDguMjA3YzUuMjM0LDAuNzMsOS43MTQtMy41MjIsOS45OTgtNS41NTljMC4yODQtMi4wMzktMy43MzItNC4yODUtOC45NzctNS4wMTVjLTUuMjM3LTAuNzMxLTkuNzE5LDAuMzMzLTkuOTk2LDIuMzY3eiIgc3R5bGU9ImZpbGw6I0ZGRkZGRjtzdHJva2Utd2lkdGg6NC4xNTU7c3Ryb2tlLWxpbmVjYXA6YnV0dDtzdHJva2UtbGluZWpvaW46bWl0ZXI7Ii8+CjxwYXRoIGQ9Ik0zMzEuOTQxLDEzNy41NDNjMC4yODQsMi4wMzktMy43MzIsNy40OC04Ljk3Niw4LjIwN2MtNS4yMzgsMC43My05LjcxOC0zLjUyMi0xMC4wMDUtNS41NTljLTAuMjc3LTIuMDM5LDMuNzQtNC4yODUsOC45NzktNS4wMTVjNS4yMzktMC43Myw5LjcxOCwwLjMzMywxMC4wMDIsMi4zNjh6IiBzdHlsZT0iZmlsbDojRkZGRkZGO3N0cm9rZS13aWR0aDoyLjA3NzU7c3Ryb2tlLWxpbmVjYXA6YnV0dDtzdHJva2UtbGluZWpvaW46bWl0ZXI7Ii8+CjxwYXRoIGQ9Ik0zNTAuNjc2LDEyMy40MzJjMC44NjMsMTUuOTk0LTMuNDQ1LDI2Ljg4OC0zLjk4OCw0My45MTRjLTAuODA0LDI0Ljc0OCwxMS43OTksNTMuMDc0LTcuMTkxLDgxLjQzNSIvPgo8cGF0aCBkPSJNMCw2MC4yMzIiIHN0eWxlPSJzdHJva2Utd2lkdGg6MzsiLz4KPC9nPgo8L3N2Zz4=;container=0;" parent="yWaaOR4PxaJ2o4JASkqa-272" vertex="1">
          <mxGeometry x="18.68291847453757" y="10.752753422437289" width="26.68988353505367" height="27.490580041105282" as="geometry" />
        </mxCell>
        <mxCell id="58" value="" style="edgeStyle=orthogonalEdgeStyle;html=1;endArrow=block;startArrow=block;startFill=1;endFill=1;strokeColor=#545B64;rounded=0;curved=1;entryX=0;entryY=0.5;entryDx=0;entryDy=0;exitX=1;exitY=0.5;exitDx=0;exitDy=0;fontColor=#000000;endSize=3;startSize=3;" parent="yWaaOR4PxaJ2o4JASkqa-274" source="205" target="206" edge="1">
          <mxGeometry width="100" relative="1" as="geometry">
            <mxPoint x="38.97790591459237" y="26.608403122227756" as="sourcePoint" />
            <mxPoint x="144.28551039050012" y="26.608403122227756" as="targetPoint" />
          </mxGeometry>
        </mxCell>
        <mxCell id="yWaaOR4PxaJ2o4JASkqa-273" value="" style="group" vertex="1" connectable="0" parent="yWaaOR4PxaJ2o4JASkqa-274">
          <mxGeometry x="61.55754738524775" y="59.98517204056433" width="64.05572048412881" height="40.03482795943567" as="geometry" />
        </mxCell>
        <mxCell id="209" value="" style="shape=image;verticalLabelPosition=bottom;labelBackgroundColor=default;verticalAlign=top;aspect=fixed;imageAspect=0;image=data:image/svg+xml,PHN2ZyB4bWxucz0iaHR0cDovL3d3dy53My5vcmcvMjAwMC9zdmciIHhtbDpzcGFjZT0icHJlc2VydmUiIHZpZXdCb3g9IjAgMCA0MzIuMDcxIDQ0NS4zODMiIGhlaWdodD0iNDQ1LjM4M3B0IiB3aWR0aD0iNDMyLjA3MXB0Ij4KPGcgc3R5bGU9ImZpbGwtcnVsZTpub256ZXJvO2NsaXAtcnVsZTpub256ZXJvO3N0cm9rZTojMDAwMDAwO3N0cm9rZS1taXRlcmxpbWl0OjQ7IiBpZD0ib3JnaW5hbCI+Cgk8L2c+CjxnIHN0eWxlPSJmaWxsLXJ1bGU6bm9uemVybztjbGlwLXJ1bGU6bm9uemVybztmaWxsOm5vbmU7c3Ryb2tlOiNGRkZGRkY7c3Ryb2tlLXdpZHRoOjEyLjQ2NTE7c3Ryb2tlLWxpbmVjYXA6cm91bmQ7c3Ryb2tlLWxpbmVqb2luOnJvdW5kO3N0cm9rZS1taXRlcmxpbWl0OjQ7IiBpZD0iTGF5ZXJfeDAwMjBfMyI+CjxwYXRoIGQ9Ik0zMjMuMjA1LDMyNC4yMjdjMi44MzMtMjMuNjAxLDEuOTg0LTI3LjA2MiwxOS41NjMtMjMuMjM5bDQuNDYzLDAuMzkyYzEzLjUxNywwLjYxNSwzMS4xOTktMi4xNzQsNDEuNTg3LTdjMjIuMzYyLTEwLjM3NiwzNS42MjItMjcuNywxMy41NzItMjMuMTQ4Yy01MC4yOTcsMTAuMzc2LTUzLjc1NS02LjY1NS01My43NTUtNi42NTVjNTMuMTExLTc4LjgwMyw3NS4zMTMtMTc4LjgzNiw1Ni4xNDktMjAzLjMyMiAgICBDMzUyLjUxNC01LjUzNCwyNjIuMDM2LDI2LjA0OSwyNjAuNTIyLDI2Ljg2OWwtMC40ODIsMC4wODljLTkuOTM4LTIuMDYyLTIxLjA2LTMuMjk0LTMzLjU1NC0zLjQ5NmMtMjIuNzYxLTAuMzc0LTQwLjAzMiw1Ljk2Ny01My4xMzMsMTUuOTA0YzAsMC0xNjEuNDA4LTY2LjQ5OC0xNTMuODk5LDgzLjYyOGMxLjU5NywzMS45MzYsNDUuNzc3LDI0MS42NTUsOTguNDcsMTc4LjMxICAgIGMxOS4yNTktMjMuMTYzLDM3Ljg3MS00Mi43NDgsMzcuODcxLTQyLjc0OGM5LjI0Miw2LjE0LDIwLjMwNyw5LjI3MiwzMS45MTIsOC4xNDdsMC44OTctMC43NjVjLTAuMjgxLDIuODc2LTAuMTU3LDUuNjg5LDAuMzU5LDkuMDE5Yy0xMy41NzIsMTUuMTY3LTkuNTg0LDE3LjgzLTM2LjcyMywyMy40MTZjLTI3LjQ1Nyw1LjY1OS0xMS4zMjYsMTUuNzM0LTAuNzk3LDE4LjM2N2MxMi43NjgsMy4xOTMsNDIuMzA1LDcuNzE2LDYyLjI2OC0yMC4yMjQgICAgbC0wLjc5NSwzLjE4OGM1LjMyNSw0LjI2LDQuOTY1LDMwLjYxOSw1LjcyLDQ5LjQ1MmMwLjc1NiwxOC44MzQsMi4wMTcsMzYuNDA5LDUuODU2LDQ2Ljc3MWMzLjgzOSwxMC4zNiw4LjM2OSwzNy4wNSw0NC4wMzYsMjkuNDA2YzI5LjgwOS02LjM4OCw1Mi42LTE1LjU4Miw1NC42NzctMTAxLjEwNyIgc3R5bGU9ImZpbGw6IzAwMDAwMDtzdHJva2U6IzAwMDAwMDtzdHJva2Utd2lkdGg6MzcuMzk1MztzdHJva2UtbGluZWNhcDpidXR0O3N0cm9rZS1saW5lam9pbjptaXRlcjsiLz4KPHBhdGggZD0iTTQwMi4zOTUsMjcxLjIzYy01MC4zMDIsMTAuMzc2LTUzLjc2LTYuNjU1LTUzLjc2LTYuNjU1YzUzLjExMS03OC44MDgsNzUuMzEzLTE3OC44NDMsNTYuMTUzLTIwMy4zMjZjLTUyLjI3LTY2Ljc4NS0xNDIuNzUyLTM1LjItMTQ0LjI2Mi0zNC4zOGwtMC40ODYsMC4wODdjLTkuOTM4LTIuMDYzLTIxLjA2LTMuMjkyLTMzLjU2LTMuNDk2Yy0yMi43NjEtMC4zNzMtNDAuMDI2LDUuOTY3LTUzLjEyNywxNS45MDIgICAgYzAsMC0xNjEuNDExLTY2LjQ5NS0xNTMuOTA0LDgzLjYzYzEuNTk3LDMxLjkzOCw0NS43NzYsMjQxLjY1Nyw5OC40NzEsMTc4LjMxMmMxOS4yNi0yMy4xNjMsMzcuODY5LTQyLjc0OCwzNy44NjktNDIuNzQ4YzkuMjQzLDYuMTQsMjAuMzA4LDkuMjcyLDMxLjkwOCw4LjE0N2wwLjkwMS0wLjc2NWMtMC4yOCwyLjg3Ni0wLjE1Miw1LjY4OSwwLjM2MSw5LjAxOWMtMTMuNTc1LDE1LjE2Ny05LjU4NiwxNy44My0zNi43MjMsMjMuNDE2ICAgIGMtMjcuNDU5LDUuNjU5LTExLjMyOCwxNS43MzQtMC43OTYsMTguMzY3YzEyLjc2OCwzLjE5Myw0Mi4zMDcsNy43MTYsNjIuMjY2LTIwLjIyNGwtMC43OTYsMy4xODhjNS4zMTksNC4yNiw5LjA1NCwyNy43MTEsOC40MjgsNDguOTY5Yy0wLjYyNiwyMS4yNTktMS4wNDQsMzUuODU0LDMuMTQ3LDQ3LjI1NGM0LjE5MSwxMS40LDguMzY4LDM3LjA1LDQ0LjA0MiwyOS40MDZjMjkuODA5LTYuMzg4LDQ1LjI1Ni0yMi45NDIsNDcuNDA1LTUwLjU1NSAgICBjMS41MjUtMTkuNjMxLDQuOTc2LTE2LjcyOSw1LjE5NC0zNC4yOGwyLjc2OC04LjMwOWMzLjE5Mi0yNi42MTEsMC41MDctMzUuMTk2LDE4Ljg3Mi0zMS4yMDNsNC40NjMsMC4zOTJjMTMuNTE3LDAuNjE1LDMxLjIwOC0yLjE3NCw0MS41OTEtN2MyMi4zNTgtMTAuMzc2LDM1LjYxOC0yNy43LDEzLjU3My0yMy4xNDh6IiBzdHlsZT0iZmlsbDojMzM2NzkxO3N0cm9rZTpub25lOyIvPgo8cGF0aCBkPSJNMjE1Ljg2NiwyODYuNDg0Yy0xLjM4NSw0OS41MTYsMC4zNDgsOTkuMzc3LDUuMTkzLDExMS40OTVjNC44NDgsMTIuMTE4LDE1LjIyMywzNS42ODgsNTAuOSwyOC4wNDVjMjkuODA2LTYuMzksNDAuNjUxLTE4Ljc1Niw0NS4zNTctNDYuMDUxYzMuNDY2LTIwLjA4MiwxMC4xNDgtNzUuODU0LDExLjAwNS04Ny4yODEiLz4KPHBhdGggZD0iTTE3My4xMDQsMzguMjU2YzAsMC0xNjEuNTIxLTY2LjAxNi0xNTQuMDEyLDg0LjEwOWMxLjU5NywzMS45MzgsNDUuNzc5LDI0MS42NjQsOTguNDczLDE3OC4zMTZjMTkuMjU2LTIzLjE2NiwzNi42NzEtNDEuMzM1LDM2LjY3MS00MS4zMzUiLz4KPHBhdGggZD0iTTI2MC4zNDksMjYuMjA3Yy01LjU5MSwxLjc1Myw4OS44NDgtMzQuODg5LDE0NC4wODcsMzQuNDE3YzE5LjE1OSwyNC40ODQtMy4wNDMsMTI0LjUxOS01Ni4xNTMsMjAzLjMyOSIvPgo8cGF0aCBkPSJNMzQ4LjI4MiwyNjMuOTUzYzAsMCwzLjQ2MSwxNy4wMzYsNTMuNzY0LDYuNjUzYzIyLjA0LTQuNTUyLDguNzc2LDEyLjc3NC0xMy41NzcsMjMuMTU1Yy0xOC4zNDUsOC41MTQtNTkuNDc0LDEwLjY5Ni02MC4xNDYtMS4wNjljLTEuNzI5LTMwLjM1NSwyMS42NDctMjEuMTMzLDE5Ljk2LTI4LjczOWMtMS41MjUtNi44NS0xMS45NzktMTMuNTczLTE4Ljg5NC0zMC4zMzggICAgYy02LjAzNy0xNC42MzMtODIuNzk2LTEyNi44NDksMjEuMjg3LTExMC4xODNjMy44MTMtMC43ODktMjcuMTQ2LTk5LjAwMi0xMjQuNTUzLTEwMC41OTljLTk3LjM4NS0xLjU5Ny05NC4xOSwxMTkuNzYyLTk0LjE5LDExOS43NjIiIHN0eWxlPSJzdHJva2UtbGluZWpvaW46YmV2ZWw7Ii8+CjxwYXRoIGQ9Ik0xODguNjA0LDI3NC4zMzRjLTEzLjU3NywxNS4xNjYtOS41ODQsMTcuODI5LTM2LjcyMywyMy40MTdjLTI3LjQ1OSw1LjY2LTExLjMyNiwxNS43MzMtMC43OTcsMTguMzY1YzEyLjc2OCwzLjE5NSw0Mi4zMDcsNy43MTgsNjIuMjY2LTIwLjIyOWM2LjA3OC04LjUwOS0wLjAzNi0yMi4wODYtOC4zODUtMjUuNTQ3Yy00LjAzNC0xLjY3MS05LjQyOC0zLjc2NS0xNi4zNjEsMy45OTR6Ii8+CjxwYXRoIGQ9Ik0xODcuNzE1LDI3NC4wNjljLTEuMzY4LTguOTE3LDIuOTMtMTkuNTI4LDcuNTM2LTMxLjk0MmM2LjkyMi0xOC42MjYsMjIuODkzLTM3LjI1NSwxMC4xMTctOTYuMzM5Yy05LjUyMy00NC4wMjktNzMuMzk2LTkuMTYzLTczLjQzNi0zLjE5M2MtMC4wMzksNS45NjgsMi44ODksMzAuMjYtMS4wNjcsNTguNTQ4Yy01LjE2MiwzNi45MTMsMjMuNDg4LDY4LjEzMiw1Ni40NzksNjQuOTM4Ii8+CjxwYXRoIGQ9Ik0xNzIuNTE3LDE0MS43Yy0wLjI4OCwyLjAzOSwzLjczMyw3LjQ4LDguOTc2LDguMjA3YzUuMjM0LDAuNzMsOS43MTQtMy41MjIsOS45OTgtNS41NTljMC4yODQtMi4wMzktMy43MzItNC4yODUtOC45NzctNS4wMTVjLTUuMjM3LTAuNzMxLTkuNzE5LDAuMzMzLTkuOTk2LDIuMzY3eiIgc3R5bGU9ImZpbGw6I0ZGRkZGRjtzdHJva2Utd2lkdGg6NC4xNTU7c3Ryb2tlLWxpbmVjYXA6YnV0dDtzdHJva2UtbGluZWpvaW46bWl0ZXI7Ii8+CjxwYXRoIGQ9Ik0zMzEuOTQxLDEzNy41NDNjMC4yODQsMi4wMzktMy43MzIsNy40OC04Ljk3Niw4LjIwN2MtNS4yMzgsMC43My05LjcxOC0zLjUyMi0xMC4wMDUtNS41NTljLTAuMjc3LTIuMDM5LDMuNzQtNC4yODUsOC45NzktNS4wMTVjNS4yMzktMC43Myw5LjcxOCwwLjMzMywxMC4wMDIsMi4zNjh6IiBzdHlsZT0iZmlsbDojRkZGRkZGO3N0cm9rZS13aWR0aDoyLjA3NzU7c3Ryb2tlLWxpbmVjYXA6YnV0dDtzdHJva2UtbGluZWpvaW46bWl0ZXI7Ii8+CjxwYXRoIGQ9Ik0zNTAuNjc2LDEyMy40MzJjMC44NjMsMTUuOTk0LTMuNDQ1LDI2Ljg4OC0zLjk4OCw0My45MTRjLTAuODA0LDI0Ljc0OCwxMS43OTksNTMuMDc0LTcuMTkxLDgxLjQzNSIvPgo8cGF0aCBkPSJNMCw2MC4yMzIiIHN0eWxlPSJzdHJva2Utd2lkdGg6MzsiLz4KPC9nPgo8L3N2Zz4=;container=0;" parent="yWaaOR4PxaJ2o4JASkqa-273" vertex="1">
          <mxGeometry x="18.68291847453757" y="10.436871601253959" width="26.68988353505367" height="27.490580041105282" as="geometry" />
        </mxCell>
        <mxCell id="250" value="&lt;p style=&quot;line-height: 70%;&quot;&gt;&lt;span style=&quot;font-size: 8px;&quot;&gt;patroni replica&lt;/span&gt;&lt;/p&gt;" style="text;html=1;strokeColor=none;fillColor=none;align=center;verticalAlign=middle;whiteSpace=wrap;rounded=0;fontColor=#000000;container=0;" parent="yWaaOR4PxaJ2o4JASkqa-273" vertex="1">
          <mxGeometry width="64.05572048412881" height="7.643744069200325" as="geometry" />
        </mxCell>
        <mxCell id="59" value="" style="edgeStyle=orthogonalEdgeStyle;html=1;endArrow=block;startArrow=block;startFill=1;endFill=1;strokeColor=#545B64;rounded=0;exitX=0.5;exitY=1;exitDx=0;exitDy=0;entryX=0;entryY=0.5;entryDx=0;entryDy=0;curved=1;fontColor=#000000;endSize=3;startSize=3;" parent="yWaaOR4PxaJ2o4JASkqa-274" source="205" target="209" edge="1">
          <mxGeometry width="100" relative="1" as="geometry">
            <mxPoint x="26.513730303722355" y="35.25351722067376" as="sourcePoint" />
            <mxPoint x="81.38279287508567" y="83.1562291129931" as="targetPoint" />
          </mxGeometry>
        </mxCell>
        <mxCell id="53" value="" style="edgeStyle=orthogonalEdgeStyle;html=1;endArrow=block;startArrow=block;startFill=1;endFill=1;strokeColor=#545B64;rounded=0;exitX=1;exitY=0.5;exitDx=0;exitDy=0;entryX=0.5;entryY=1;entryDx=0;entryDy=0;curved=1;fontColor=#000000;endSize=3;startSize=3;" parent="yWaaOR4PxaJ2o4JASkqa-274" source="209" target="206" edge="1">
          <mxGeometry width="100" relative="1" as="geometry">
            <mxPoint x="106.31114409682583" y="83.1562291129931" as="sourcePoint" />
            <mxPoint x="157.84894562565347" y="32.45476224546141" as="targetPoint" />
          </mxGeometry>
        </mxCell>
        <mxCell id="yWaaOR4PxaJ2o4JASkqa-277" value="" style="group" vertex="1" connectable="0" parent="1">
          <mxGeometry x="438.5" y="258.25" width="70" height="17.5" as="geometry" />
        </mxCell>
        <mxCell id="yWaaOR4PxaJ2o4JASkqa-275" value="&lt;font style=&quot;font-size: 8px;&quot;&gt;Network&lt;br&gt;&lt;/font&gt;" style="text;html=1;strokeColor=none;fillColor=none;align=center;verticalAlign=top;whiteSpace=wrap;rounded=0;fontColor=#000000;" vertex="1" parent="yWaaOR4PxaJ2o4JASkqa-277">
          <mxGeometry width="70" height="8.75" as="geometry" />
        </mxCell>
        <mxCell id="yWaaOR4PxaJ2o4JASkqa-276" value="&lt;font style=&quot;font-size: 8px;&quot;&gt;Load Balancer&lt;br&gt;&lt;/font&gt;" style="text;html=1;strokeColor=none;fillColor=none;align=center;verticalAlign=top;whiteSpace=wrap;rounded=0;fontColor=#000000;" vertex="1" parent="yWaaOR4PxaJ2o4JASkqa-277">
          <mxGeometry y="8.75" width="70" height="8.75" as="geometry" />
        </mxCell>
      </root>
    </mxGraphModel>
  </diagram>
</mxfile>
